<?xml version="1.0" encoding="UTF-8" standalone="no"?>
<svg width="748px" height="781px" viewBox="0 0 748 781" version="1.1" xmlns="http://www.w3.org/2000/svg" xmlns:xlink="http://www.w3.org/1999/xlink">
    <!-- Generator: Sketch 42 (36781) - http://www.bohemiancoding.com/sketch -->
    <title>Fill 1</title>
    <desc>Created with Sketch.</desc>
    <defs></defs>
    <g id="Page-1" stroke="none" stroke-width="1" fill="none" fill-rule="evenodd">
        <g id="Fill-1">
            <path d="M535.703197,194.401325 C521.187197,112.733325 426.402197,58.799325 321.168197,73.378325 C215.930197,87.956325 139.379197,165.624325 147.605197,248.159325 L147.508197,248.174325 L203.582197,652.964325 L204.226197,657.632325 L204.328197,657.620325 C218.844197,739.288325 313.625197,793.221325 418.863197,778.643325 C524.098197,764.065325 600.652197,686.397325 592.422197,603.858325 L592.519197,603.846325 L591.875197,599.174325 L535.801197,194.385325 L535.703197,194.401325 Z" fill="#7FCFD5"></path>
            <path d="M264.902454,504.164675 C291.363454,479.816675 288.969454,432.598675 259.098454,397.539675 C229.227454,362.481675 182.988454,352.613675 154.742454,374.871675 L154.715454,374.840675 L153.160454,376.164675 L19.8594536,489.738675 L18.3054536,491.063675 L18.3324536,491.094675 C-8.12854642,515.445675 -5.72954642,562.664675 24.1374536,597.723675 C54.0084536,632.781675 100.246454,642.645675 128.492454,620.391675 L128.520454,620.422675 L264.930454,504.199675 L264.902454,504.164675 Z" id="Fill-3" fill="#7FCFD5"></path>
            <path d="M728.902899,395.168675 C755.363899,370.817675 752.968899,323.598675 723.097899,288.539675 C693.226899,253.481675 646.988899,243.613675 618.742899,265.871675 L618.715899,265.840675 L617.160899,267.164675 L482.304899,382.063675 L482.332899,382.098675 C455.871899,406.445675 458.269899,453.664675 488.136899,488.723675 C518.008899,523.781675 564.246899,533.649675 592.492899,511.391675 L592.519899,511.422675 L594.074899,510.098675 L727.375899,396.524675 L728.929899,395.199675 L728.902899,395.168675 Z" id="Fill-4" fill="#7FCFD5"></path>
            <path d="M242,117 C242,154.558 211.554,185 174,185 C136.445,185 106,154.558 106,117 C106,79.445 136.445,49 174,49 C211.554,49 242,79.445 242,117" id="Fill-8" fill="#7FCFD5"></path>
            <path d="M527,68 C527,105.558 496.554,136 459,136 C421.445,136 391,105.558 391,68 C391,30.445 421.445,0 459,0 C496.554,0 527,30.445 527,68" id="Fill-9" fill="#7FCFD5"></path>
            <path d="M520.741618,210.89877 C531.573618,288.84877 461.862618,362.94577 365.034618,376.39877 C268.213618,389.85177 180.940618,337.56677 170.108618,259.61377 C159.280618,181.66077 228.991618,107.56277 325.815618,94.1097703 C422.639618,80.6567703 509.909618,132.94577 520.741618,210.89877" id="Fill-10" fill="#FFFFFF"></path>
            <path d="M321.603531,214.224765 C324.795531,237.196765 308.760531,258.411765 285.783531,261.603765 C262.810531,264.794765 241.596531,248.759765 238.404531,225.782765 C235.213531,202.806765 251.248531,181.595765 274.224531,178.404765 C297.201531,175.212765 318.412531,191.247765 321.603531,214.224765" id="Fill-11" fill="#389F9F"></path>
            <path d="M447.607449,196.225388 C450.799449,219.198388 434.764449,240.413388 411.787449,243.604388 C388.810449,246.796388 367.600449,230.760388 364.404449,207.784388 C361.213449,184.807388 377.252449,163.596388 400.228449,160.405388 C423.201449,157.210388 444.416449,173.249388 447.607449,196.225388" id="Fill-12" fill="#389F9F"></path>
            <path d="M366.819576,270.387341 C368.265576,280.781341 361.007576,290.379341 350.616576,291.820341 C340.222576,293.265341 330.624576,286.011341 329.183576,275.617341 C327.737576,265.222341 334.991576,255.625341 345.386576,254.183341 C355.776576,252.738341 365.374576,259.992341 366.819576,270.387341" id="Fill-13" fill="#389F9F"></path>
            <path d="M293.868627,217.075707 C294.935627,224.731707 289.587627,231.802707 281.931627,232.868707 C274.271627,233.931707 267.200627,228.587707 266.134627,220.927707 C265.071627,213.270707 270.419627,206.196707 278.075627,205.134707 C285.735627,204.071707 292.806627,209.415707 293.868627,217.075707" id="Fill-14" fill="#7FCFD5"></path>
            <path d="M420.866352,199.073332 C421.932352,206.733332 416.584352,213.803332 408.928352,214.866332 C401.268352,215.932332 394.198352,210.585332 393.135352,202.928332 C392.069352,195.268332 397.416352,188.198332 405.073352,187.135332 C412.733352,186.069332 419.803352,191.417332 420.866352,199.073332" id="Fill-15" fill="#7FCFD5"></path>
        </g>
    </g>
</svg>